<svg width="80" height="81" viewBox="0 0 80 81" fill="none" xmlns="http://www.w3.org/2000/svg">
<path fill-rule="evenodd" clip-rule="evenodd" d="M46.1253 32.25H53.1878V39.4375H56.7503C58.3753 39.4375 60.0628 39.125 61.6253 38.625C62.3753 38.375 63.2503 38 64.0003 37.5625C63.0003 36.25 62.5003 34.625 62.3753 33C62.1878 30.8125 62.6253 27.9375 64.1253 26.25L64.8753 25.375L65.7503 26.0625C68.0003 27.875 69.8128 30.3125 70.1878 33.1875C72.8753 32.375 76.0003 32.5625 78.3753 33.9375L79.3128 34.5L78.8128 35.5C76.8128 39.375 72.6253 40.625 68.5628 40.375C62.4378 55.5625 49.1878 62.75 33.0628 62.75C24.7503 62.75 17.1253 59.625 12.7503 52.25L12.6878 52.125L12.0628 50.8125C10.5628 47.5625 10.1253 44 10.4378 40.4375L10.5628 39.375H16.5628V32.25H23.6253V25.25H37.6878V18.1875H46.1253V32.25Z" fill="#3A4D54"/>
<path d="M68.9997 34.9375C69.4997 31.25 66.7497 28.375 64.9997 27C63.0622 29.25 62.7497 35.25 65.8122 37.75C64.0622 39.25 60.4997 40.6875 56.7497 40.6875H11.6247C11.2497 44.5625 11.9372 48.125 13.4997 51.1875L13.9997 52.125C14.3122 52.6875 14.6872 53.1875 15.0622 53.75C16.9372 53.875 18.6247 53.9375 20.1872 53.875C23.2497 53.8125 25.7497 53.4375 27.6872 52.8125C27.9997 52.6875 28.2497 52.875 28.3747 53.125C28.4997 53.4375 28.3122 53.6875 28.0622 53.8125C27.8122 53.875 27.5622 54 27.2497 54.0625C25.7497 54.5 24.1247 54.75 22.0622 54.875H21.6872C20.8747 54.9375 19.9997 54.9375 19.0622 54.9375C18.0622 54.9375 17.1247 54.9375 15.9997 54.875C19.7497 59.125 25.6247 61.625 32.9997 61.625C48.6247 61.625 61.8747 54.6875 67.6872 39.1875C71.8747 39.625 75.8747 38.5625 77.6872 35C74.8747 33.3125 71.1247 33.875 68.9997 34.9375Z" fill="#00AADA"/>
<path d="M69.0004 34.9375C69.5004 31.25 66.7504 28.375 65.0004 27C63.0629 29.25 62.7504 35.25 65.8129 37.75C64.0629 39.25 60.5004 40.6875 56.7504 40.6875H14.2504C14.0629 46.625 16.2504 51.125 20.1879 53.8125C23.2504 53.75 25.7504 53.375 27.6879 52.75C28.0004 52.625 28.2504 52.8125 28.3754 53.0625C28.5004 53.375 28.3129 53.625 28.0629 53.75C27.8129 53.8125 27.5629 53.9375 27.2504 54C25.7504 54.4375 24.0004 54.75 21.9379 54.875L21.8754 54.8125C27.1879 57.5625 34.8754 57.5 43.7504 54.125C53.6254 50.3125 62.8754 43.0625 69.3129 34.8125C69.1879 34.875 69.0629 34.875 69.0004 34.9375Z" fill="#28B8EB"/>
<path d="M11.6875 45.375C11.9375 47.4375 12.5625 49.375 13.5 51.1875L14 52.125C14.3125 52.6875 14.6875 53.1875 15.0625 53.75C16.9375 53.875 18.625 53.9375 20.1875 53.875C23.25 53.8125 25.75 53.4375 27.6875 52.8125C28 52.6875 28.25 52.875 28.375 53.125C28.5 53.4375 28.3125 53.6875 28.0625 53.8125C27.8125 53.875 27.5625 54 27.25 54.0625C25.75 54.5 24 54.8125 21.9375 54.9375H21.6875C20.875 55 20 55 19.125 55C18.125 55 17.125 55 16.0625 54.9375C19.8125 59.1875 25.75 61.6875 33.125 61.6875C46.5 61.6875 58.125 56.625 64.875 45.4375H11.6875V45.375Z" fill="#028BB8"/>
<path d="M14.6875 45.375C15.5 49 17.375 51.875 20.1875 53.8125C23.25 53.75 25.75 53.375 27.6875 52.75C28 52.625 28.25 52.8125 28.375 53.0625C28.5 53.375 28.3125 53.625 28.0625 53.75C27.8125 53.8125 27.5625 53.9375 27.25 54C25.75 54.4375 24 54.75 21.875 54.875C27.1875 57.625 34.875 57.5625 43.6875 54.1875C49 52.125 54.1875 49.0625 58.8125 45.375H14.6875Z" fill="#019BC6"/>
<path fill-rule="evenodd" clip-rule="evenodd" d="M17.75 33.4375H23.875V39.5625H17.75V33.4375ZM18.25 33.9375H18.75V39H18.25V33.9375ZM19.125 33.9375H19.625V39H19.125V33.9375ZM20.0625 33.9375H20.5625V39H20.0625V33.9375ZM21 33.9375H21.5V39H21V33.9375ZM21.9375 33.9375H22.4375V39H21.9375V33.9375ZM22.875 33.9375H23.375V39H22.875V33.9375ZM24.75 26.4375H30.875V32.5625H24.75V26.4375ZM25.3125 26.9375H25.8125V32H25.3125V26.9375ZM26.1875 26.9375H26.6875V32H26.1875V26.9375ZM27.125 26.9375H27.625V32H27.125V26.9375ZM28.0625 26.9375H28.5625V32H28.0625V26.9375ZM28.9375 26.9375H29.4375V32H28.9375V26.9375ZM29.875 26.9375H30.375V32H29.875V26.9375Z" fill="#00ACD3"/>
<path fill-rule="evenodd" clip-rule="evenodd" d="M24.75 33.4375H30.875V39.5625H24.75V33.4375ZM25.3125 33.9375H25.8125V39H25.3125V33.9375ZM26.1875 33.9375H26.6875V39H26.1875V33.9375ZM27.125 33.9375H27.625V39H27.125V33.9375ZM28.0625 33.9375H28.5625V39H28.0625V33.9375ZM28.9375 33.9375H29.4375V39H28.9375V33.9375ZM29.875 33.9375H30.375V39H29.875V33.9375Z" fill="#23C2EE"/>
<path fill-rule="evenodd" clip-rule="evenodd" d="M31.8125 33.4375H37.9375V39.5625H31.8125V33.4375ZM32.3125 33.9375H32.8125V39H32.3125V33.9375ZM33.25 33.9375H33.75V39H33.25V33.9375ZM34.1875 33.9375H34.6875V39H34.1875V33.9375ZM35.0625 33.9375H35.5625V39H35.0625V33.9375ZM36 33.9375H36.5V39H36V33.9375ZM36.9375 33.9375H37.4375V39H36.9375V33.9375Z" fill="#00ACD3"/>
<path fill-rule="evenodd" clip-rule="evenodd" d="M31.8125 26.4375H37.9375V32.5625H31.8125V26.4375ZM32.3125 26.9375H32.8125V32H32.3125V26.9375ZM33.25 26.9375H33.75V32H33.25V26.9375ZM34.1875 26.9375H34.6875V32H34.1875V26.9375ZM35.0625 26.9375H35.5625V32H35.0625V26.9375ZM36 26.9375H36.5V32H36V26.9375ZM36.9375 26.9375H37.4375V32H36.9375V26.9375ZM38.875 33.4375H45V39.5625H38.875V33.4375ZM39.375 33.9375H39.875V39H39.375V33.9375ZM40.3125 33.9375H40.8125V39H40.3125V33.9375ZM41.1875 33.9375H41.6875V39H41.1875V33.9375ZM42.125 33.9375H42.625V39H42.125V33.9375ZM43.0625 33.9375H43.5625V39H43.0625V33.9375ZM44 33.9375H44.5V39H44V33.9375Z" fill="#23C2EE"/>
<path fill-rule="evenodd" clip-rule="evenodd" d="M38.875 26.4375H45V32.5625H38.875V26.4375ZM39.375 26.9375H39.875V32H39.375V26.9375ZM40.3125 26.9375H40.8125V32H40.3125V26.9375ZM41.1875 26.9375H41.6875V32H41.1875V26.9375ZM42.125 26.9375H42.625V32H42.125V26.9375ZM43.0625 26.9375H43.5625V32H43.0625V26.9375ZM44 26.9375H44.5V32H44V26.9375Z" fill="#00ACD3"/>
<path fill-rule="evenodd" clip-rule="evenodd" d="M38.875 19.375H45V25.5H38.875V19.375ZM39.375 19.875H39.875V24.9375H39.375V19.875ZM40.3125 19.875H40.8125V24.9375H40.3125V19.875ZM41.1875 19.875H41.6875V24.9375H41.1875V19.875ZM42.125 19.875H42.625V24.9375H42.125V19.875ZM43.0625 19.875H43.5625V24.9375H43.0625V19.875ZM44 19.875H44.5V24.9375H44V19.875Z" fill="#23C2EE"/>
<path fill-rule="evenodd" clip-rule="evenodd" d="M45.9375 33.4375H52.0625V39.5625H45.9375V33.4375ZM46.4375 33.9375H46.9375V39H46.4375V33.9375ZM47.3125 33.9375H47.8125V39H47.3125V33.9375ZM48.25 33.9375H48.75V39H48.25V33.9375ZM49.1875 33.9375H49.6875V39H49.1875V33.9375ZM50.125 33.9375H50.625V39H50.125V33.9375ZM51.0625 33.9375H51.5625V39H51.0625V33.9375Z" fill="#00ACD3"/>
<path fill-rule="evenodd" clip-rule="evenodd" d="M30.5 49.4375C31.4375 49.4375 32.1875 50.1875 32.1875 51.125C32.1875 52.0625 31.4375 52.8125 30.5 52.8125C29.5625 52.8125 28.8125 52.0625 28.8125 51.125C28.8125 50.1875 29.5625 49.4375 30.5 49.4375Z" fill="#D4EEF1"/>
<path fill-rule="evenodd" clip-rule="evenodd" d="M30.5 49.9375C30.625 49.9375 30.8125 49.9375 30.9375 50C30.8125 50.0625 30.6875 50.25 30.6875 50.4375C30.6875 50.6875 30.9375 50.9375 31.1875 50.9375C31.375 50.9375 31.5625 50.8125 31.625 50.6875C31.6875 50.8125 31.6875 51 31.6875 51.125C31.6875 51.8125 31.125 52.3125 30.5 52.3125C29.8125 52.3125 29.3125 51.75 29.3125 51.125C29.3125 50.5 29.8125 49.9375 30.5 49.9375ZM0.6875 46H79.0625C77.375 45.5625 73.6875 45 74.25 42.75C71.125 46.3125 63.6875 45.25 61.75 43.5C59.625 46.5625 47.375 45.375 46.5625 43C43.9375 46.125 35.75 46.125 33.125 43C32.25 45.375 20 46.5625 17.9375 43.5C16.0625 45.25 8.5625 46.3125 5.4375 42.75C6.125 44.9375 2.375 45.5625 0.6875 46Z" fill="#3A4D54"/>
<path d="M35 61.625C30.8125 59.625 28.5625 56.9375 27.25 54C25.6875 54.4375 23.8125 54.75 21.6875 54.875C20.875 54.9375 20 54.9375 19.125 54.9375C18.0625 54.9375 17 54.9375 15.875 54.875C19.625 58.625 24.375 61.5625 33.0625 61.625H35Z" fill="#BFDBE0"/>
<path d="M28.8125 56.6875C28.25 55.875 27.6875 54.9375 27.25 54C25.6875 54.4375 23.8125 54.75 21.6875 54.875C23.125 55.625 25.25 56.375 28.8125 56.6875Z" fill="#D4EEF1"/>
</svg>
