<svg width="80" height="81" viewBox="0 0 80 81" fill="none" xmlns="http://www.w3.org/2000/svg">
<g clip-path="url(#clip0_39_179)">
<path d="M47.125 0.6875C46.5625 0.6875 46 0.8125 45.5 1C46.5625 1.6875 47.125 2.625 47.4375 3.6875C47.4375 3.8125 47.5 3.9375 47.5 4.0625C47.5 4.1875 47.5625 4.3125 47.5625 4.4375C47.625 6.25 47.0625 6.5 46.6875 7.5625C46.0625 8.9375 46.25 10.4375 47 11.625C47.0625 11.75 47.125 11.9375 47.25 12.0625C46.4375 6.8125 50.8125 6.0625 51.625 4.4375C51.6875 3 50.5 2.0625 49.5625 1.375C48.625 0.8125 47.875 0.6875 47.125 0.6875ZM53.6875 1.8125C53.625 2.3125 53.6875 2.1875 53.625 2.4375C53.625 2.625 53.625 2.8125 53.5625 3C53.5 3.1875 53.5 3.3125 53.4375 3.5C53.375 3.6875 53.3125 3.8125 53.25 4C53.1875 4.125 53.125 4.25 53.0625 4.4375C53 4.5 52.9375 4.625 52.875 4.6875C52.8125 4.75 52.8125 4.8125 52.75 4.875C52.625 5 52.5625 5.1875 52.4375 5.3125L52.0625 5.6875C51.9375 5.8125 51.8125 5.9375 51.6875 6C51.25 6.3125 50.75 6.5625 50.3125 6.875C50.1875 7 50 7.0625 49.875 7.1875C49.75 7.3125 49.625 7.375 49.5 7.5L49.125 7.875C49 8 48.875 8.125 48.8125 8.3125C48.6875 8.4375 48.625 8.625 48.5 8.75C48.4375 8.9375 48.375 9.0625 48.25 9.25C48.1875 9.4375 48.125 9.5625 48.0625 9.75C48 9.9375 47.9375 10.125 47.9375 10.25C47.9375 10.3125 47.9375 10.4375 47.875 10.5C47.875 10.5625 47.875 10.6875 47.8125 10.75V11.625C47.8125 11.8125 47.8125 11.9375 47.875 12.125C47.875 12.3125 47.9375 12.4375 48 12.625C48.0625 12.8125 48.125 12.9375 48.1875 13.125C48.25 13.25 48.3125 13.3125 48.3125 13.4375L43.5625 11.625C42.75 11.375 42 11.1875 41.1875 11C40.75 10.875 40.3125 10.8125 39.875 10.6875C38.625 10.4375 37.375 10.25 36.125 10.125H36C34.75 10 33.5625 9.9375 32.3125 9.9375C31.375 9.9375 30.5 10 29.625 10.0625C28.375 10.125 27.125 10.3125 25.875 10.5L24.9375 10.6875C24.3125 10.8125 23.6875 10.9375 23.0625 11.125C22.75 11.1875 22.4375 11.3125 22.125 11.375C21.8125 11.5 21.5 11.625 21.25 11.75C21 11.875 20.8125 11.9375 20.5625 12.0625C20.5 12.0625 20.5 12.0625 20.4375 12.125C20.25 12.25 20.0625 12.3125 19.875 12.4375C19.8125 12.4375 19.75 12.5 19.75 12.5C19.5 12.625 19.3125 12.75 19.125 12.8125C19 12.875 18.8125 12.9375 18.6875 13C18.625 13.0625 18.5625 13.0625 18.5 13.125C18.3125 13.25 18.125 13.3125 17.9375 13.4375C17.75 13.5625 17.5625 13.625 17.4375 13.75C17.3125 13.875 17.125 13.9375 17 14.0625C17 14.0625 16.9375 14.0625 16.9375 14.125C16.8125 14.1875 16.6875 14.3125 16.5625 14.4375L16.5 14.5C16.375 14.5625 16.3125 14.6875 16.1875 14.75C16.125 14.75 16.125 14.8125 16.0625 14.8125C15.9375 14.875 15.875 15 15.75 15.0625C15.75 15.125 15.6875 15.125 15.6875 15.125L15.3125 15.5L15.25 15.5625L14.875 15.9375C14.875 15.9375 14.875 16 14.8125 16L14.5 16.3125C14.4375 16.375 14.375 16.375 14.375 16.4375L14 16.8125C14 16.875 13.9375 16.875 13.9375 16.9375L13.4375 17.4375L13.375 17.5C13.0625 17.875 12.6875 18.1875 12.3125 18.5C11.9375 18.8125 11.5625 19.125 11.125 19.4375C10.6875 19.75 10.3125 20 9.875 20.25C9.4375 20.5 9 20.6875 8.5625 20.875C8.125 21.0625 7.6875 21.25 7.25 21.375C6.375 21.5625 5.5 21.9375 4.75 22C4.75 21.6875 4.5625 21.75 4.375 21.75C4.1875 21.8125 4 21.8125 3.875 21.875C3.6875 21.9375 3.5625 22 3.375 22.0625C3.1875 22.125 3.0625 22.1875 2.875 22.3125C2.75 22.4375 2.5625 22.5 2.4375 22.625C2.3125 22.75 2.125 22.875 2 23C1.875 23.125 1.6875 23.25 1.5625 23.375C1.4375 23.5 1.3125 23.625 1.1875 23.8125C1.0625 24 0.9375 24.125 0.875 24.3125C0.75 24.4375 0.6875 24.625 0.5625 24.8125C0.5 25 0.375 25.1875 0.3125 25.375L0.125 25.9375C0.0625 26.125 0.0625 26.25 0 26.4375V26.5C-0.0625 26.6875 -0.0625 26.9375 -0.0625 27.0625C0 27 0 27.125 0 27.25V27.5C0 27.625 0.0625 27.75 0.0625 27.875C0.125 28 0.125 28.125 0.1875 28.25C0.25 28.375 0.3125 28.5 0.4375 28.625C0.5 28.75 0.625 28.875 0.6875 29C0.8125 29.125 0.9375 29.25 1.0625 29.3125C1.1875 29.4375 1.3125 29.5625 1.4375 29.625C1.9375 30.0625 2.0625 30.1875 2.6875 30.5625C2.8125 30.625 2.875 30.6875 3 30.75H3.0625V30.875C3.0625 31.0625 3.125 31.1875 3.1875 31.375C3.25 31.5625 3.3125 31.75 3.375 31.875L3.5625 32.25C3.5625 32.3125 3.625 32.3125 3.625 32.375C3.6875 32.5625 3.8125 32.6875 3.875 32.8125C4 32.9375 4.0625 33.125 4.1875 33.25L4.5625 33.625L4.9375 34H5C5.125 34.125 5.25 34.1875 5.375 34.3125C5.5 34.4375 5.6875 34.5 5.8125 34.5625C5.9375 34.625 6.125 34.75 6.3125 34.8125C6.4375 34.875 6.5625 34.9375 6.75 34.9375C6.75 34.9375 6.8125 34.9375 6.8125 35C6.875 35 7 35.0625 7.0625 35.0625C7 36.1875 7 37.25 7.125 37.625C7.3125 38.0625 8.25 36.75 9.125 35.3125C9 36.75 8.9375 38.4375 9.125 38.9375C9.375 39.4375 10.5625 37.8125 11.6875 36.0625C26.3125 32.6875 39.6875 42.8125 41.125 57.125C40.875 54.875 38.125 53.625 36.8125 53.9375C36.1875 55.4375 35.125 57.4375 33.4375 58.625C33.5625 57.25 33.5 55.875 33.25 54.5C32.8125 56.375 31.9375 58.1875 30.6875 59.6875C28.75 59.8125 26.75 58.875 25.75 57.4375C25.6875 57.375 25.625 57.25 25.5625 57.1875C25.5 57.0625 25.4375 56.875 25.375 56.75C25.3125 56.625 25.25 56.4375 25.25 56.3125V55.875V55.5625C25.25 55.4375 25.3125 55.25 25.375 55.125C25.4375 55 25.4375 54.8125 25.5 54.6875C25.5625 54.5625 25.625 54.375 25.75 54.25C26.125 53.25 26.125 52.4375 25.4375 52L25.0625 51.8125C25 51.8125 24.875 51.75 24.8125 51.75C24.75 51.75 24.6875 51.6875 24.625 51.6875C24.5 51.625 24.3125 51.625 24.1875 51.5625C24.0625 51.5 23.875 51.5 23.75 51.5C23.625 51.5 23.4375 51.4375 23.3125 51.4375H23C22.8125 51.4375 22.6875 51.4375 22.5625 51.5C22.4375 51.5 22.25 51.5625 22.125 51.5625C22 51.625 21.8125 51.625 21.6875 51.6875C21.5625 51.75 21.4375 51.8125 21.25 51.875L20.875 52.0625C16.0625 55.1875 18.9375 62.5625 22.1875 64.6875C20.9375 64.9375 19.6875 65.1875 19.3125 65.4375L19.25 65.5C20.125 66.0625 21.0625 66.5 22.0625 66.875C23.375 67.3125 24.8125 67.6875 25.4375 67.875C27.125 68.25 28.875 68.375 30.625 68.25C39.75 67.625 47.25 60.625 48.625 51.5C48.6875 51.6875 48.6875 51.875 48.75 52.0625C48.8125 52.4375 48.875 52.8125 48.9375 53.25C49 53.4375 49 53.625 49 53.8125V53.875C49 54.0625 49.0625 54.25 49.0625 54.4375C49.0625 54.6875 49.125 54.875 49.125 55.125V57.75C49.125 57.9375 49.0625 58.0625 49.0625 58.25V58.4375C49.0625 58.625 49 58.8125 49 59.0625C48.9375 59.25 48.9375 59.4375 48.875 59.625V59.6875C48.8125 59.875 48.8125 60.0625 48.75 60.25V60.3125C48.6875 60.5 48.6875 60.6875 48.625 60.875V60.9375L48.4375 61.5V61.5625C48.375 61.75 48.3125 62 48.25 62.1875C48.1875 62.375 48.125 62.5625 48 62.8125C47.9375 63 47.875 63.25 47.75 63.4375C47.6875 63.625 47.5625 63.8125 47.5 64.0625C47.4375 64.25 47.3125 64.4375 47.25 64.625C47.25 64.6875 47.1875 64.75 47.1875 64.75C47.1875 64.75 47.1875 64.8125 47.125 64.8125C45.8125 67.5 43.8125 69.875 41.3125 71.75C41.125 71.875 41 72 40.8125 72.125C40.75 72.1875 40.6875 72.1875 40.6875 72.25C40.5625 72.375 40.375 72.4375 40.25 72.5625L40.3125 72.6875C40.625 72.625 40.875 72.625 41.1875 72.5625C41.75 72.5 42.25 72.375 42.8125 72.25C42.9375 72.25 43.125 72.1875 43.25 72.125C43.375 72.125 43.4375 72.0625 43.5625 72.0625C43.6875 72.0625 43.875 72 44 72C44.125 71.9375 44.25 71.9375 44.375 71.875C46.4375 71.375 48.4375 70.6875 50.375 69.875C47.0625 74.375 42.6875 78 37.5625 80.375C39.9375 80.1875 42.3125 79.8125 44.625 79.125C52.9375 76.6875 59.9375 71.0625 64.125 63.5C63.25 68.25 61.375 72.8125 58.5625 76.8125C60.5625 75.5 62.375 73.9375 64.0625 72.25C68.6875 67.4375 71.75 61.25 72.75 54.6875C73.4375 57.9375 73.6875 61.3125 73.375 64.625C88.3125 43.8125 74.625 22.25 68.875 16.5625C68.875 16.5 68.8125 16.5 68.8125 16.4375C68.8125 16.6875 68.8125 16.9375 68.75 17.1875C68.6875 17.6875 68.625 18.125 68.5625 18.5625C68.4375 19 68.3125 19.5 68.1875 19.9375C68.0625 20.375 67.875 20.8125 67.6875 21.25C67.5 21.6875 67.3125 22.125 67.0625 22.5C66.8125 22.875 66.5625 23.3125 66.3125 23.6875C66.0625 24.0625 65.75 24.4375 65.4375 24.8125C65.125 25.1875 64.8125 25.5 64.4375 25.875C64.25 26.0625 64.0625 26.25 63.8125 26.375C63.625 26.5 63.5 26.625 63.3125 26.8125C62.9375 27.125 62.5625 27.375 62.125 27.625C61.75 27.875 61.3125 28.125 60.875 28.3125L59.5625 28.875C59.125 29.0625 58.6875 29.1875 58.25 29.3125C57.8125 29.4375 57.3125 29.5625 56.875 29.625C56.375 29.6875 55.9375 29.75 55.5 29.8125C55.1875 29.8125 54.8125 29.875 54.5 29.875C54 29.875 53.5625 29.8125 53.125 29.8125C52.625 29.75 52.1875 29.6875 51.75 29.625C51.25 29.5625 50.8125 29.4375 50.375 29.25C50.8125 29.1875 51.3125 29.1875 51.75 29.0625C52.25 29 52.6875 28.875 53.125 28.75C53.5625 28.625 54.0625 28.5 54.4375 28.3125L55.75 27.75C56.1875 27.5625 56.5625 27.3125 57 27.0625C57.375 26.8125 57.8125 26.5 58.1875 26.25C58.5625 25.9375 58.9375 25.625 59.25 25.3125C59.625 25 59.9375 24.625 60.25 24.3125C60.5625 23.9375 60.875 23.5625 61.125 23.1875C61.1875 23.125 61.1875 23.0625 61.25 23C61.4375 22.6875 61.6875 22.3125 61.875 22C62.125 21.5625 62.3125 21.1875 62.5 20.75C62.6875 20.3125 62.875 19.875 63 19.4375L63.375 18.125C63.4375 17.625 63.5625 17.1875 63.5625 16.75C63.625 16.25 63.625 15.8125 63.625 15.375C63.625 15.0625 63.625 14.6875 63.5625 14.375C63.5 13.875 63.4375 13.4375 63.375 13C63.3125 12.5 63.1875 12.0625 63.0625 11.625C62.9375 11.1875 62.75 10.75 62.625 10.3125C62.4375 9.875 62.25 9.4375 62.0625 9.0625C61.8125 8.625 61.625 8.25 61.375 7.8125C61.125 7.4375 60.8125 7.0625 60.5625 6.6875C60.25 6.3125 59.9375 6 59.625 5.625C59.4375 5.4375 59.25 5.25 59.0625 5.125C58.125 4.375 57.1875 3.75 56.1875 3.125C56.0625 3.0625 55.9375 3 55.75 2.9375C54.9375 2.25 54.3125 2.0625 53.6875 1.8125Z" fill="#DF234F"/>
</g>
<defs>
<clipPath id="clip0_39_179">
<rect width="80" height="80" fill="white" transform="translate(0 0.5)"/>
</clipPath>
</defs>
</svg>
