<svg width="80" height="81" viewBox="0 0 80 81" fill="none" xmlns="http://www.w3.org/2000/svg">
<path d="M15.3125 32.0625C14.375 32.0625 13.75 32.8125 13.75 33.75V42.5625L3.8125 32.5625C3.3125 32.0625 2.4375 31.9375 1.8125 32.1875C1.1875 32.4375 0.625 33.0625 0.625 33.75V46.6875C0.625 47.625 1.5625 48.375 2.5 48.375C3.4375 48.375 4.375 47.625 4.375 46.6875V37.875L14.4375 47.875C14.75 48.1875 15.1875 48.375 15.625 48.375C15.8125 48.375 15.875 48.3125 16.0625 48.25C16.6875 48 16.875 47.375 16.875 46.6875V33.8125C16.875 32.875 16.25 32.0625 15.3125 32.0625ZM27.625 39.4375C26.75 39.4375 25.9375 40.3125 25.9375 41.1875C25.9375 42.0625 26.75 42.9375 27.625 42.9375L31.75 43.1875L30.8125 45.5H25.5L22.875 40.5625L25.5625 35.5H31.25L32.5625 38H36L33.75 33.0625L33.25 32.375H23.5L23.0625 33.125L19.375 39.5625L18.9375 40.375L19.375 41.1875L23 47.625L23.5 48.625H32.9375L33.375 47.5625L36.0625 41.9375L37.25 39.25H34.5L27.625 39.4375ZM40.625 32.0625C39.75 32.0625 38.75 32.875 38.75 33.75V38H42.5V33.8125C42.5 32.875 41.5 32.0625 40.625 32.0625ZM59.625 32.25C59 32 58.125 32.125 57.6875 32.625L47.5 42.625V33.8125C47.5 32.875 46.875 32.125 45.9375 32.125C45 32.125 44.375 32.875 44.375 33.8125V46.75C44.375 47.4375 44.8125 48.0625 45.4375 48.3125C45.625 48.375 45.875 48.4375 46.0625 48.4375C46.5 48.4375 47.0625 48.25 47.375 47.9375L57.5 37.9375V46.75C57.5 47.6875 58.125 48.4375 59.0625 48.4375C60 48.4375 60.625 47.6875 60.625 46.75V33.8125C60.625 33.125 60.25 32.5 59.625 32.25ZM73.25 40.25L78.5 35C79.1875 34.3125 79.1875 33.25 78.5 32.625C77.8125 31.9375 76.75 31.9375 76.125 32.625L70.875 37.875L65.625 32.625C64.9375 31.9375 63.875 31.9375 63.25 32.625C62.5625 33.3125 62.5625 34.375 63.25 35L68.5 40.25L63.25 45.5C62.5625 46.1875 62.5625 47.25 63.25 47.875C63.5625 48.1875 64 48.375 64.4375 48.375C64.875 48.375 65.3125 48.1875 65.625 47.875L70.875 42.625L76.125 47.875C76.4375 48.1875 76.875 48.375 77.3125 48.375C77.75 48.375 78.1875 48.1875 78.5 47.875C79.1875 47.1875 79.1875 46.125 78.5 45.5L73.25 40.25ZM38.75 46.6875C38.75 47.5625 39.6875 48.375 40.625 48.375C41.5 48.375 42.5 47.5625 42.5 46.6875V39.25H38.75V46.6875Z" fill="#009900"/>
</svg>
