<svg width="80" height="81" viewBox="0 0 80 81" fill="none" xmlns="http://www.w3.org/2000/svg">
<path d="M58.6302 58.0699C59.1209 53.9868 58.974 53.3874 62.0152 54.0493L62.7871 54.1168C65.1259 54.2231 68.1852 53.7405 69.9827 52.9055C73.8521 51.1099 76.1459 48.1131 72.3315 48.8999C63.629 50.6956 63.0309 47.7487 63.0309 47.7487C72.2202 34.1143 76.0615 16.8062 72.7452 12.5693C63.7015 1.01367 48.0471 6.47805 47.7852 6.6193L47.7015 6.63492C45.9821 6.27805 44.0577 6.06492 41.8958 6.02992C37.9577 5.96492 34.9696 7.06242 32.7027 8.78117C32.7027 8.78117 4.77585 -2.72445 6.07523 23.2505C6.35148 28.7762 13.9952 65.0618 23.1127 54.1018C26.4452 50.0943 29.6652 46.7056 29.6652 46.7056C31.264 47.7674 33.179 48.3099 35.1865 48.1149L35.3421 47.9824C35.2934 48.4799 35.3146 48.9668 35.404 49.5431C33.0559 52.1674 33.7458 52.628 29.0502 53.5943C24.299 54.573 27.0902 56.3162 28.9121 56.7718C31.1215 57.3243 36.2321 58.1068 39.6859 53.273L39.5484 53.8243C40.4696 54.5618 40.4077 59.1224 40.5377 62.3806C40.6684 65.6393 40.8865 68.6799 41.5509 70.4731C42.2152 72.2655 42.999 76.883 49.1702 75.5605C54.3277 74.458 58.2709 72.8674 58.6302 58.0699Z" fill="black"/>
<path d="M47.1614 78.7851C44.4321 78.7851 42.6546 77.7295 41.5752 76.7101C39.9458 75.1726 39.2996 73.192 38.9133 72.0089L38.7464 71.5151C37.9689 69.4164 37.7052 66.3945 37.5489 62.5033C37.5252 61.9189 37.5089 61.317 37.4908 60.6789C37.4777 60.212 37.4614 59.6264 37.4377 59.0139C36.4544 59.4827 35.4106 59.8126 34.3364 59.9939C32.4121 60.3226 30.3433 60.2164 28.1864 59.677C26.6646 59.2964 25.0833 58.5076 24.1821 57.2895C21.5552 59.5901 19.0496 59.2783 17.6846 58.8226C15.2764 58.0195 13.1214 55.7626 11.0958 51.9245C9.65269 49.1901 8.25707 45.6276 6.94707 41.3351C4.66582 33.8601 3.21644 25.987 3.08769 23.402C2.68269 15.3114 4.86082 9.52513 9.56019 6.20575C16.9733 0.969502 28.2052 4.04888 32.3002 5.447C35.0514 3.78888 38.2883 2.982 41.9458 3.04013C43.9102 3.072 45.7808 3.2445 47.5183 3.5545C49.3308 2.9845 52.9108 2.16638 57.0089 2.21763C64.5596 2.30763 70.8164 5.25013 75.1021 10.727C78.1608 14.6345 76.6483 22.8401 75.4752 27.3839C73.8239 33.7751 70.9308 40.5726 67.3771 46.4901C68.3421 46.497 69.7402 46.3814 71.7277 45.9708C75.6489 45.1614 76.7958 47.2639 77.1071 48.2051C78.3539 51.9814 72.9339 54.8351 71.2433 55.6201C69.0771 56.6258 65.5452 57.2383 62.6527 57.1058L62.5264 57.0976L61.7664 57.0308L61.6914 57.6645L61.6189 58.2839C61.4246 65.7833 60.3533 70.5326 58.1489 73.6708C55.8383 76.9608 52.6271 77.8826 49.7983 78.4889C48.8333 78.6951 47.9564 78.7851 47.1614 78.7851ZM41.4177 51.4908C43.1796 52.9008 43.3339 55.5539 43.4721 60.512C43.4896 61.1308 43.5058 61.7164 43.5277 62.2633C43.5939 63.9195 43.7496 67.7976 44.3571 69.4364C44.4427 69.6683 44.5196 69.9033 44.6008 70.1526C45.2777 72.2251 45.6171 73.2645 48.5439 72.6389C51.0008 72.112 52.2639 71.6395 53.2527 70.232C54.6896 68.1858 55.4933 64.0695 55.6408 57.9976L58.6302 58.0701L55.6614 57.7139L55.7489 56.9726C56.0333 54.5289 56.2383 52.7639 57.8714 51.5964C59.1821 50.6601 60.6752 50.7508 61.8646 50.9651C60.5577 49.9776 60.1964 48.8195 60.1002 48.3445L59.8508 47.1164L60.5514 46.077C64.5871 40.0895 67.9146 32.7308 69.6821 25.887C71.4983 18.8551 70.9446 15.1208 70.3908 14.4145C63.0602 5.04763 50.3483 8.91513 49.0208 9.35388L48.7964 9.47513L47.6714 9.6845L47.0952 9.56513C45.5064 9.23513 43.7414 9.05263 41.8496 9.022C38.8771 8.972 36.4789 9.6745 34.5127 11.1664L33.1483 12.2008L31.5652 11.5489C28.1827 10.1658 18.2477 7.38513 13.0052 11.0983C10.0952 13.1595 8.76957 17.1983 9.06457 23.1026C9.16207 25.052 10.4864 32.4314 12.6714 39.5883C15.6908 49.4789 18.4346 52.7645 19.5802 53.1464C19.7802 53.2139 20.2989 52.8108 20.8152 52.1908C22.9677 49.6104 25.1966 47.0947 27.4989 44.647L29.2302 42.8251L31.3233 44.2158C32.1671 44.7764 33.0977 45.0945 34.0533 45.1545L39.0452 40.897L38.3221 48.277C38.3058 48.4426 38.2977 48.6683 38.3627 49.087L38.5802 50.4858L37.6364 51.5408L37.5277 51.6633L40.2702 52.9289L41.4177 51.4908Z" fill="black"/>
<path d="M72.3323 48.8998C63.6292 50.6954 63.0311 47.7485 63.0311 47.7485C72.2205 34.1135 76.0617 16.8048 72.7467 12.5692C63.703 1.01415 48.0473 6.47853 47.7861 6.6204L47.7017 6.6354C45.9823 6.27853 44.058 6.06603 41.8948 6.03103C37.9567 5.96665 34.9698 7.06353 32.703 8.78228C32.703 8.78228 4.77546 -2.72272 6.07421 23.2517C6.35046 28.7779 13.9942 65.0635 23.1117 54.1035C26.4442 50.096 29.6636 46.7073 29.6636 46.7073C31.263 47.7692 33.1773 48.3117 35.1842 48.1167L35.3405 47.9842C35.2917 48.4817 35.3142 48.9685 35.403 49.5448C33.0542 52.1692 33.7442 52.6298 29.0486 53.596C24.2973 54.5748 27.0886 56.3179 28.9111 56.7735C31.1198 57.326 36.2311 58.1085 39.6842 53.2748L39.5461 53.826C40.4667 54.5635 41.113 58.621 41.0048 62.2992C40.8961 65.9773 40.8236 68.5029 41.5492 70.4754C42.2742 72.4479 42.9967 76.8854 49.1692 75.5629C54.3267 74.4579 56.9992 71.5935 57.3717 66.816C57.6355 63.4192 58.2323 63.9217 58.2705 60.8848L58.7498 59.4473C59.3023 54.8429 58.8373 53.3579 62.0155 54.0485L62.7873 54.116C65.1261 54.2223 68.1867 53.7398 69.9836 52.9048C73.8523 51.1104 76.1467 48.1129 72.3323 48.8998Z" fill="#336791"/>
<path d="M47.4735 76.942C42.3285 76.942 40.6985 72.8676 40.0316 71.2014C39.0553 68.7595 38.8447 59.2833 39.0622 51.512C39.0654 51.381 39.0946 51.2518 39.1479 51.1321C39.2013 51.0123 39.2778 50.9043 39.3731 50.8143C39.4683 50.7242 39.5805 50.6539 39.7031 50.6074C39.8256 50.5609 39.9562 50.5391 40.0872 50.5433C40.2181 50.5468 40.347 50.5761 40.4666 50.6296C40.5861 50.683 40.694 50.7595 40.784 50.8546C40.8739 50.9497 40.9443 51.0617 40.9909 51.184C41.0376 51.3064 41.0597 51.4367 41.056 51.5676C40.8053 60.5308 41.161 68.6533 41.8835 70.4608C43.011 73.2789 44.721 75.7439 49.5553 74.7083C54.1447 73.7239 55.8635 71.9839 56.6291 67.5458C57.2166 64.1401 58.3785 54.4514 58.5216 52.5395C58.5312 52.4088 58.5664 52.2814 58.6254 52.1644C58.6843 52.0474 58.7657 51.9431 58.865 51.8577C58.9643 51.7722 59.0795 51.7072 59.2039 51.6663C59.3284 51.6254 59.4597 51.6095 59.5903 51.6195C59.854 51.6395 60.0989 51.7632 60.2714 51.9636C60.4439 52.164 60.5298 52.4246 60.5103 52.6883C60.361 54.6789 59.2047 64.3489 58.5947 67.8851C57.691 73.127 55.3541 75.5045 49.9735 76.6583C49.0591 76.8539 48.2285 76.9414 47.4735 76.942ZM19.576 57.0414C19.1263 57.0398 18.6797 56.966 18.2535 56.8226C14.9116 55.7076 11.7285 50.2651 8.79222 40.6445C6.55722 33.3214 5.14097 25.6776 5.01659 23.1932C4.64847 15.8282 6.54472 10.6176 10.6541 7.707C18.7835 1.947 32.4591 7.432 33.0372 7.66825C33.2821 7.76828 33.4773 7.96151 33.5797 8.20543C33.6822 8.44934 33.6835 8.72396 33.5835 8.96887C33.4834 9.21378 33.2902 9.40892 33.0463 9.51136C32.8024 9.61381 32.5278 9.61516 32.2828 9.51512C32.151 9.46137 19.0372 4.20762 11.8028 9.337C8.28909 11.8282 6.67597 16.457 7.00784 23.0939C7.11222 25.187 8.43534 32.647 10.6991 40.062C13.3203 48.6507 16.3035 54.0701 18.8841 54.9308C19.2891 55.0658 20.5216 55.4764 22.2835 53.3576C24.3381 50.89 26.4698 48.4876 28.6753 46.1539C28.8599 45.9698 29.1092 45.8653 29.3698 45.8627C29.6304 45.8601 29.8818 45.9596 30.07 46.1399C30.2581 46.3203 30.3683 46.5671 30.3767 46.8277C30.3852 47.0882 30.2914 47.3417 30.1153 47.5339C30.0853 47.5651 27.086 50.7008 23.8172 54.6333C22.2691 56.4951 20.7853 57.0414 19.576 57.0414ZM62.9691 48.6383C62.7883 48.638 62.611 48.5886 62.4561 48.4954C62.3011 48.4022 62.1745 48.2686 62.0896 48.109C62.0048 47.9493 61.9649 47.7696 61.9743 47.589C61.9836 47.4085 62.0419 47.2339 62.1428 47.0839C71.4322 33.2995 74.6928 16.6439 71.9003 13.0751C68.3853 8.58387 63.4222 6.23825 57.1478 6.10262C52.5022 6.00262 48.8097 7.18887 48.206 7.39575L48.0541 7.45762C47.4472 7.64825 46.9816 7.31575 46.806 6.927C46.7058 6.70427 46.6907 6.45259 46.7633 6.21945C46.836 5.9863 46.9914 5.78779 47.2003 5.66137C47.2291 5.6445 47.3203 5.60575 47.4685 5.55137C48.4941 5.17575 52.2428 4.05075 56.886 4.10387C63.8285 4.17762 69.5635 6.8545 73.4697 11.8464C75.3178 14.2082 75.3222 19.6495 73.4816 26.7757C71.6053 34.0414 68.0747 41.8495 63.796 48.1989C63.6047 48.4845 63.2897 48.6383 62.9691 48.6383ZM63.4441 55.0195C61.8578 55.0195 60.436 54.7958 59.5847 54.2858C58.7097 53.7614 58.5428 53.0489 58.521 52.6708C58.2822 48.477 60.596 47.747 61.776 47.4139C61.6116 47.1651 61.3778 46.8726 61.136 46.5708C60.4478 45.7108 59.5053 44.5333 58.7791 42.772C58.6653 42.497 58.3091 41.8576 57.8966 41.117C55.6597 37.1057 51.0053 28.7589 53.9953 24.4845C55.3791 22.5064 58.1347 21.7276 62.1947 22.162C61.0003 18.5232 55.3128 7.14075 41.8172 6.9195C37.7585 6.852 34.4297 8.10012 31.9285 10.6257C26.3285 16.2814 26.531 26.5145 26.5341 26.617C26.5375 26.7479 26.5152 26.8782 26.4683 27.0005C26.4213 27.1227 26.3508 27.2346 26.2607 27.3296C26.1705 27.4246 26.0626 27.5009 25.943 27.5542C25.8233 27.6075 25.6944 27.6367 25.5635 27.6401C25.4326 27.6436 25.3022 27.6212 25.18 27.5743C25.0577 27.5274 24.9459 27.4568 24.8509 27.3667C24.7559 27.2766 24.6796 27.1686 24.6263 27.049C24.573 26.9294 24.5438 26.8004 24.5403 26.6695C24.5278 26.2151 24.3191 15.4764 30.5116 9.222C33.4097 6.29512 37.2247 4.85012 41.8503 4.92575C50.4841 5.06762 56.0416 9.457 59.1828 13.1139C62.6072 17.0995 64.286 21.4958 64.4241 22.9632C64.5272 24.0545 63.7441 24.2726 63.586 24.3051L63.226 24.3132C59.2416 23.6751 56.6853 24.1182 55.6285 25.6282C53.3541 28.8789 57.7572 36.7745 59.6372 40.1464C60.1172 41.0064 60.4635 41.6283 60.6222 42.012C61.2397 43.5095 62.0453 44.5158 62.6922 45.3245C63.2616 46.0358 63.7547 46.6526 63.931 47.3764C64.0128 47.5201 65.1747 49.2389 72.0691 47.8158C73.7972 47.4595 74.8335 47.7639 75.1503 48.722C75.7735 50.6064 72.2772 52.8045 70.3416 53.7033C68.6072 54.5095 65.8391 55.0195 63.4441 55.0195ZM60.5091 52.5064C60.7278 52.727 61.8222 53.1076 64.0885 53.0101C66.1035 52.9239 68.2285 52.4858 69.5035 51.8939C71.1341 51.1364 72.2228 50.2895 72.7866 49.7114L72.4741 49.7689C68.066 50.6789 64.9478 50.5576 63.2066 49.4083C63.0896 49.3309 62.9769 49.2472 62.8691 49.1576C62.6803 49.232 62.506 49.2808 62.3816 49.3158C61.3941 49.5926 60.3728 49.8795 60.5091 52.5064ZM32.0328 58.0783C30.9378 58.0783 29.7853 57.9289 28.6085 57.6345C27.3891 57.3295 25.3335 56.4114 25.3647 54.9033C25.4003 53.2114 27.861 52.7039 28.7872 52.5133C32.1335 51.8239 32.3516 51.5476 33.3972 50.2195C33.7022 49.8326 34.0816 49.3508 34.5991 48.7733C35.3672 47.9132 36.2066 47.4776 37.0941 47.4776C37.7122 47.4776 38.2191 47.687 38.5541 47.8264C39.6216 48.2689 40.5122 49.3389 40.8785 50.6183C41.2091 51.7726 41.051 52.8839 40.4347 53.747C38.4116 56.5801 35.506 58.0783 32.0328 58.0783ZM27.5191 54.9889C27.8197 55.2214 28.4222 55.532 29.0928 55.6995C30.1122 55.9545 31.101 56.0839 32.0335 56.0839C34.8747 56.0839 37.156 54.9076 38.8128 52.5876C39.1585 52.1039 39.0547 51.4895 38.9622 51.1664C38.7685 50.4895 38.2872 49.8739 37.7916 49.6683C37.5228 49.557 37.2997 49.472 37.0947 49.472C36.9847 49.472 36.6497 49.472 36.086 50.1026C35.6969 50.5401 35.323 50.9908 34.9647 51.4539C33.6622 53.1076 33.0653 53.6689 29.1903 54.467C28.2447 54.6608 27.7597 54.8583 27.5191 54.9889ZM35.1872 50.3889C34.9491 50.3885 34.7191 50.303 34.5385 50.1478C34.358 49.9926 34.2389 49.7779 34.2028 49.5426C34.178 49.3771 34.1614 49.2104 34.1528 49.0433C31.6128 48.9958 29.1622 47.9058 27.3016 45.9645C24.9491 43.5101 23.8785 40.1095 24.3647 36.6351C24.8928 32.862 24.6953 29.5314 24.5891 27.742C24.5597 27.2445 24.5385 26.8851 24.5397 26.6364C24.5416 26.3207 24.5478 25.4839 27.3453 24.0658C28.3403 23.5614 30.3353 22.6814 32.5147 22.4557C36.1253 22.0826 38.5053 23.6907 39.2178 26.9845C41.141 35.877 39.3703 39.8101 38.0772 42.6826C37.8366 43.2176 37.6091 43.7226 37.4272 44.212L37.2666 44.6432C36.5835 46.4751 35.9928 48.0576 36.1741 49.2395C36.194 49.3689 36.1882 49.501 36.157 49.6282C36.1259 49.7554 36.0699 49.8752 35.9925 49.9808C35.915 50.0864 35.8174 50.1757 35.7054 50.2435C35.5934 50.3114 35.4692 50.3566 35.3397 50.3764L35.1872 50.3889ZM26.5403 26.9126L26.5791 27.6245C26.6891 29.4832 26.8941 32.942 26.3391 36.912C25.9385 39.7776 26.8135 42.5745 28.741 44.5845C30.2641 46.1733 32.2685 47.0501 34.3285 47.0501H34.371C34.6016 46.0783 34.9847 45.052 35.3972 43.9464L35.5566 43.5176C35.7622 42.9651 36.0028 42.4301 36.2578 41.8639C37.5022 39.0989 39.0516 35.657 37.2672 27.4064C36.9141 25.772 36.0572 24.8264 34.6491 24.5145C31.7566 23.8757 27.446 26.0514 26.5403 26.9126ZM32.5591 26.4895C32.5091 26.842 33.2047 27.7832 34.1122 27.9089C35.0178 28.0357 35.7928 27.2995 35.8422 26.947C35.8916 26.5945 35.1966 26.2057 34.2891 26.0795C33.3822 25.9532 32.6072 26.137 32.5591 26.4895ZM34.3203 28.2557L34.066 28.2382C33.5035 28.1601 32.9347 27.8057 32.5453 27.2895C32.4085 27.1082 32.1853 26.757 32.2297 26.4432C32.2928 25.9832 32.8541 25.7076 33.7297 25.7076C33.9253 25.7076 34.1291 25.722 34.3341 25.7507C34.8128 25.817 35.2572 25.9551 35.5853 26.1382C36.1541 26.4557 36.196 26.8101 36.1703 26.9932C36.1003 27.5014 35.2922 28.2557 34.3203 28.2557ZM32.8897 26.5482C32.9178 26.7657 33.4566 27.4832 34.1578 27.5801L34.321 27.5914C34.9685 27.5914 35.4522 27.082 35.5091 26.9151C35.4491 26.8014 35.0328 26.5189 34.2435 26.4089C34.0735 26.3845 33.902 26.3722 33.7303 26.372C33.2228 26.372 32.9535 26.4864 32.8897 26.5482ZM60.1428 25.7701C60.1922 26.1226 59.4972 27.0639 58.5903 27.1901C57.6841 27.3164 56.9085 26.5807 56.8585 26.2282C56.811 25.8757 57.506 25.4864 58.4122 25.3607C59.3185 25.2339 60.0928 25.4182 60.1428 25.7701ZM58.381 27.3701C57.5085 27.3701 56.7553 26.6914 56.6935 26.2507C56.6216 25.722 57.4922 25.3201 58.3885 25.1957C58.586 25.1682 58.7816 25.1545 58.9697 25.1545C59.7435 25.1545 60.256 25.3814 60.3072 25.7476C60.3403 25.9845 60.1585 26.3501 59.8453 26.6801C59.6385 26.897 59.2041 27.2726 58.6122 27.3545L58.381 27.3701ZM58.9703 25.487C58.7978 25.487 58.6178 25.5001 58.4353 25.5251C57.5347 25.6507 56.9972 26.012 57.0235 26.2057C57.0535 26.4189 57.6285 27.0382 58.3816 27.0382L58.5672 27.0251C59.0591 26.957 59.4285 26.6357 59.6047 26.4507C59.8816 26.1601 59.9916 25.8864 59.9785 25.7932C59.961 25.6695 59.6285 25.487 58.9703 25.487ZM61.4485 46.0139C61.2678 46.014 61.0905 45.965 60.9355 45.872C60.7806 45.7791 60.6538 45.6458 60.5688 45.4864C60.4838 45.3269 60.4437 45.1474 60.4529 44.967C60.4621 44.7865 60.5202 44.612 60.621 44.462C62.7447 41.2901 62.356 38.0557 61.9803 34.9276C61.8197 33.5951 61.6547 32.217 61.6972 30.8945C61.741 29.5339 61.9141 28.4114 62.081 27.3257C62.2791 26.0395 62.4666 24.8245 62.3891 23.382C62.382 23.2513 62.4008 23.1204 62.4443 22.9969C62.4878 22.8734 62.5552 22.7597 62.6427 22.6622C62.7302 22.5648 62.836 22.4855 62.954 22.429C63.0721 22.3724 63.2002 22.3397 63.331 22.3326C63.4617 22.3256 63.5926 22.3443 63.7161 22.3878C63.8396 22.4314 63.9533 22.4988 64.0507 22.5862C64.1482 22.6737 64.2274 22.7795 64.284 22.8976C64.3405 23.0157 64.3733 23.1438 64.3803 23.2745C64.4691 24.9232 64.2572 26.2982 64.0522 27.6289C63.8941 28.6557 63.7303 29.7176 63.691 30.9583C63.6528 32.1295 63.8022 33.3732 63.9603 34.6895C64.3603 38.0157 64.8135 41.7858 62.2785 45.5714C62.1872 45.7077 62.0637 45.8194 61.9189 45.8966C61.7741 45.9738 61.6125 46.0141 61.4485 46.0139Z" fill="white"/>
</svg>
