<svg width="80" height="81" viewBox="0 0 80 81" fill="none" xmlns="http://www.w3.org/2000/svg">
<g clip-path="url(#clip0_39_425)">
<path fill-rule="evenodd" clip-rule="evenodd" d="M9.17025 54.8065C8.38284 53.5645 8.37094 51.9825 9.13959 50.7285L38.0804 3.52013C39.6901 0.894416 43.577 1.124 44.8664 3.92093L71.3053 61.2731C72.2861 63.4011 71.157 65.9048 68.9124 66.5782L27.7848 78.9165C26.1301 79.4128 24.3471 78.7476 23.4222 77.2885L9.17025 54.8065ZM41.4196 17.3235C41.6984 15.9347 43.6013 15.7344 44.1633 17.0347L62.4004 59.2345C62.7436 60.0291 62.3164 60.9454 61.487 61.1928L33.0711 69.6754C32.0266 69.9871 31.026 69.0745 31.2407 68.0056L41.4196 17.3235ZM147.128 60.8916H155.207V31.2771H147.128V60.8916ZM146.784 23.6221C146.784 20.992 148.251 19.6759 151.182 19.6759C154.112 19.6759 155.579 20.992 155.579 23.6221C155.579 24.8764 155.212 25.852 154.48 26.5497C153.747 27.2475 152.648 27.5954 151.182 27.5954C148.251 27.5954 146.784 26.271 146.784 23.6221ZM257.631 47.1714L254.505 47.2771C252.156 47.3482 250.408 47.7728 249.26 48.5491C248.112 49.3265 247.539 50.5088 247.539 52.0988C247.539 54.3762 248.845 55.5156 251.459 55.5156C253.33 55.5156 254.828 54.9776 255.948 53.8994C257.07 52.8228 257.631 51.3925 257.631 49.6079V47.1714ZM260.015 60.8928L258.452 56.8662H258.24C256.88 58.5796 255.48 59.7676 254.041 60.4299C252.602 61.0919 250.726 61.4222 248.413 61.4222C245.569 61.4222 243.332 60.6102 241.697 58.9856C240.064 57.3619 239.248 55.0479 239.248 52.0454C239.248 48.9028 240.347 46.5851 242.545 45.0922C244.745 43.6002 248.06 42.7745 252.492 42.6154L257.631 42.4565V41.1582C257.631 38.1568 256.094 36.6554 253.022 36.6554C250.655 36.6554 247.874 37.3699 244.677 38.8011L242.002 33.3442C245.411 31.5616 249.19 30.6685 253.34 30.6685C257.313 30.6685 260.359 31.5345 262.479 33.2648C264.597 34.9954 265.657 37.6274 265.657 41.1582V60.8928H260.015ZM215.658 60.8928H207.578V43.5954C207.578 41.4591 207.22 39.8571 206.506 38.7879C205.79 37.7196 204.664 37.1848 203.128 37.1848C201.062 37.1848 199.561 37.9451 198.625 39.4631C197.689 40.9822 197.221 43.4814 197.221 46.9599V60.8928H189.142V31.2779H195.314L196.4 35.0662H196.851C197.645 33.7071 198.794 32.6428 200.294 31.8748C201.795 31.1059 203.517 30.7216 205.46 30.7216C209.892 30.7216 212.894 32.1702 214.466 35.0662H215.18C215.976 33.6885 217.146 32.6202 218.691 31.8608C220.236 31.1014 221.98 30.7216 223.922 30.7216C227.277 30.7216 229.817 31.5831 231.538 33.3048C233.26 35.0268 234.12 37.7862 234.12 41.5816V60.8928H226.014V43.5954C226.014 41.4591 225.656 39.8571 224.943 38.7879C224.226 37.7196 223.101 37.1848 221.564 37.1848C219.587 37.1848 218.108 37.8919 217.127 39.3042C216.148 40.7174 215.658 42.9594 215.658 46.0319V60.8928ZM180.486 59.0385C182.596 57.4494 183.652 55.1362 183.652 52.0982C183.652 50.6336 183.396 49.3699 182.884 48.3102C182.371 47.2505 181.576 46.3151 180.5 45.5022C179.423 44.6905 177.727 43.8168 175.413 42.8805C172.818 41.8385 171.136 41.0519 170.367 40.5225C169.6 39.9931 169.215 39.3665 169.215 38.6416C169.215 37.3528 170.407 36.7082 172.791 36.7082C174.133 36.7082 175.449 36.9122 176.738 37.3171C178.026 37.7239 179.414 38.2439 180.897 38.8802L183.334 33.0531C179.961 31.4994 176.491 30.7222 172.923 30.7222C169.179 30.7222 166.288 31.4414 164.249 32.8808C162.208 34.3202 161.188 36.3556 161.188 38.9859C161.188 40.5225 161.432 41.8171 161.918 42.8674C162.403 43.9179 163.18 44.8494 164.249 45.6614C165.316 46.4742 166.99 47.3571 169.268 48.3102C170.857 48.9816 172.129 49.5691 173.082 50.0722C174.036 50.5756 174.707 51.0265 175.096 51.4231C175.484 51.8205 175.679 52.3368 175.679 52.9728C175.679 54.6676 174.212 55.5151 171.281 55.5151C169.851 55.5151 168.195 55.2765 166.315 54.8005C164.433 54.3234 162.743 53.7322 161.242 53.0251V59.7008C162.566 60.2656 163.988 60.6939 165.507 60.9859C167.026 61.2768 168.861 61.4225 171.016 61.4225C175.219 61.4225 178.375 60.6276 180.486 59.0385ZM142.842 30.9599C142.118 30.8011 141.209 30.7216 140.114 30.7216C138.277 30.7216 136.577 31.2294 135.015 32.2451C133.451 33.2611 132.211 34.5985 131.292 36.2576H130.896L129.703 31.2779H123.584V60.8928H131.664V45.8205C131.664 43.4365 132.383 41.5816 133.822 40.2574C135.262 38.9328 137.27 38.2705 139.849 38.2705C140.785 38.2705 141.579 38.3594 142.233 38.5354L142.842 30.9599ZM99.8047 40.3896H102.507C105.032 40.3896 106.921 39.8911 108.175 38.8931C109.429 37.8959 110.056 36.4425 110.056 34.5354C110.056 32.6114 109.53 31.1896 108.48 30.2711C107.428 29.3525 105.782 28.8932 103.539 28.8932H99.8047V40.3896ZM118.347 34.2445C118.347 38.4125 117.045 41.5999 114.439 43.8065C111.835 46.0148 108.131 47.1176 103.328 47.1176H99.8047V60.8922H91.5933V22.1655H103.963C108.661 22.1655 112.232 23.1766 114.678 25.1988C117.124 27.221 118.347 30.2368 118.347 34.2445Z" fill="black"/>
</g>
<defs>
<clipPath id="clip0_39_425">
<rect width="80" height="80" fill="white" transform="translate(0 0.5)"/>
</clipPath>
</defs>
</svg>
