<svg width="80" height="81" viewBox="0 0 80 81" fill="none" xmlns="http://www.w3.org/2000/svg">
<path d="M40 47.625C43.935 47.625 47.125 44.435 47.125 40.5C47.125 36.565 43.935 33.375 40 33.375C36.065 33.375 32.875 36.565 32.875 40.5C32.875 44.435 36.065 47.625 40 47.625Z" fill="#61DAFB"/>
<path d="M67.0625 28.75C65.6875 28.25 64.25 27.75 62.75 27.3125C63.125 25.8125 63.4375 24.3125 63.6875 22.875C65 14.625 63.5625 8.8125 59.5625 6.5625C58.375 5.875 57.0625 5.5625 55.5625 5.5625C51.1875 5.5625 45.625 8.8125 40 14.25C34.375 8.8125 28.8125 5.5625 24.4375 5.5625C22.9375 5.5625 21.625 5.875 20.4375 6.5625C16.4375 8.875 15 14.6875 16.3125 22.875C16.5625 24.3125 16.875 25.8125 17.25 27.3125C15.75 27.75 14.3125 28.1875 12.9375 28.75C5.125 31.75 0.875 35.875 0.875 40.5C0.875 45.125 5.1875 49.25 12.9375 52.25C14.3125 52.75 15.75 53.25 17.25 53.6875C16.875 55.1875 16.5625 56.6875 16.3125 58.125C15 66.375 16.4375 72.1875 20.4375 74.4375C21.625 75.125 22.9375 75.4375 24.4375 75.4375C28.875 75.4375 34.4375 72.1875 40 66.75C45.625 72.1875 51.1875 75.4375 55.5625 75.4375C57.0625 75.4375 58.375 75.125 59.5625 74.4375C63.5625 72.125 65 66.3125 63.6875 58.125C63.4375 56.6875 63.125 55.1875 62.75 53.6875C64.25 53.25 65.6875 52.8125 67.0625 52.25C74.875 49.25 79.125 45.125 79.125 40.5C79.125 35.875 74.875 31.75 67.0625 28.75ZM57.8125 9.6875C60.375 11.1875 61.25 15.8125 60.1875 22.375C60 23.6875 59.6875 25.0625 59.3125 26.5C56.0625 25.75 52.625 25.25 49 24.9375C46.875 21.9375 44.6875 19.25 42.5 16.8125C47.125 12.25 51.8125 9.125 55.625 9.125C56.4375 9.125 57.1875 9.3125 57.8125 9.6875ZM50.8125 46.75C49.6875 48.75 48.375 50.75 47 52.75C44.6875 52.9375 42.375 53 40 53C37.5625 53 35.25 52.9375 33 52.75C31.625 50.75 30.375 48.75 29.25 46.75C28.0625 44.6875 26.9375 42.5625 25.9375 40.5C26.9375 38.4375 28.0625 36.3125 29.25 34.25C30.375 32.25 31.6875 30.25 33.0625 28.25C35.375 28.0625 37.6875 28 40.0625 28C42.5 28 44.8125 28.0625 47.0625 28.25C48.4375 30.25 49.6875 32.25 50.8125 34.25C52 36.3125 53.125 38.4375 54.125 40.5C53.0625 42.5625 52 44.625 50.8125 46.75ZM56 44.6875C56.9375 46.875 57.6875 49 58.375 51.125C56.25 51.625 54 52 51.625 52.3125C52.375 51.125 53.1875 49.875 53.875 48.5625C54.625 47.25 55.3125 45.9375 56 44.6875ZM40 61.625C38.5 60 37.0625 58.25 35.6875 56.4375C37.125 56.5 38.5625 56.5625 40 56.5625C41.4375 56.5625 42.875 56.5 44.3125 56.4375C42.9375 58.25 41.5 60 40 61.625ZM28.375 52.25C26 51.9375 23.75 51.5625 21.625 51.0625C22.3125 49 23.0625 46.8125 24 44.625C24.6875 45.875 25.375 47.1875 26.125 48.4375C26.875 49.8125 27.625 51 28.375 52.25ZM24 36.3125C23.0625 34.125 22.3125 32 21.625 29.875C23.75 29.375 26 29 28.375 28.6875C27.625 29.875 26.8125 31.125 26.125 32.4375C25.375 33.75 24.6875 35.0625 24 36.3125ZM40 19.375C41.5 21 42.9375 22.75 44.3125 24.5625C42.875 24.5 41.4375 24.4375 40 24.4375C38.5625 24.4375 37.125 24.5 35.6875 24.5625C37.0625 22.75 38.5 21 40 19.375ZM53.875 32.5L51.625 28.75C54 29.0625 56.25 29.4375 58.375 29.9375C57.6875 32 56.9375 34.1875 56 36.375C55.3125 35.0625 54.625 33.75 53.875 32.5ZM19.8125 22.375C18.75 15.8125 19.625 11.1875 22.1875 9.6875C22.8125 9.3125 23.5625 9.125 24.375 9.125C28.125 9.125 32.8125 12.1875 37.5 16.8125C35.3125 19.1875 33.125 21.9375 31 24.9375C27.375 25.25 23.9375 25.8125 20.6875 26.5C20.3125 25.0625 20.0625 23.6875 19.8125 22.375ZM4.375 40.5C4.375 37.5625 7.9375 34.4375 14.1875 32.125C15.4375 31.625 16.8125 31.1875 18.1875 30.8125C19.1875 33.9375 20.4375 37.25 21.9375 40.5625C20.4375 43.875 19.125 47.125 18.1875 50.25C9.5625 47.75 4.375 44 4.375 40.5ZM22.1875 71.3125C19.625 69.8125 18.75 65.1875 19.8125 58.625C20 57.3125 20.3125 55.9375 20.6875 54.5C23.9375 55.25 27.375 55.75 31 56.0625C33.125 59.0625 35.3125 61.75 37.5 64.1875C32.875 68.75 28.1875 71.875 24.375 71.875C23.5625 71.875 22.8125 71.6875 22.1875 71.3125ZM60.1875 58.625C61.25 65.1875 60.375 69.8125 57.8125 71.3125C57.1875 71.6875 56.4375 71.875 55.625 71.875C51.875 71.875 47.1875 68.8125 42.5 64.1875C44.6875 61.8125 46.875 59.0625 49 56.0625C52.625 55.75 56.0625 55.1875 59.3125 54.5C59.6875 55.9375 59.9375 57.3125 60.1875 58.625ZM65.8125 48.875C64.5625 49.375 63.1875 49.8125 61.8125 50.1875C60.8125 47.0625 59.5625 43.75 58.0625 40.4375C59.5625 37.125 60.875 33.875 61.8125 30.75C70.4375 33.25 75.625 37 75.625 40.5C75.625 43.4375 72 46.5625 65.8125 48.875Z" fill="#61DAFB"/>
</svg>
