<svg width="80" height="81" viewBox="0 0 80 81" fill="none" xmlns="http://www.w3.org/2000/svg">
<path d="M55.4315 55.5687C49.8065 67.0687 39.9565 74.8062 26.9252 77.3499C24.9272 77.8394 22.8761 78.0788 20.819 78.0624C13.319 78.0624 6.44398 74.9374 3.10648 69.8187C-1.37477 62.9999 -2.89976 48.5437 11.8752 37.8499C12.1752 39.4812 12.7877 41.7187 13.194 43.0437C10.2936 45.1985 7.91947 47.9828 6.25023 51.1874C3.50023 56.5874 3.80648 61.9812 7.06273 66.9687C9.31273 70.3312 12.8752 72.3749 17.4565 72.9999C23.1786 73.7242 28.9836 72.631 34.0502 69.8749C41.994 65.6999 47.2877 60.7124 50.7502 53.8937C49.7712 52.8819 49.1917 51.5497 49.119 50.1437C49.0667 48.6348 49.6151 47.1669 50.6438 46.0619C51.6726 44.9569 53.0978 44.3053 54.6065 44.2499H54.819C56.2865 44.2425 57.7006 44.7996 58.7688 45.8058C59.837 46.812 60.4775 48.1904 60.5578 49.6557C60.6381 51.121 60.152 52.5611 59.2002 53.678C58.2483 54.7949 56.9035 55.5031 55.444 55.6562L55.4315 55.5687ZM73.3502 42.9437C80.9815 51.5937 81.1877 61.7749 78.2377 67.6812C75.4877 73.0749 68.2377 78.4749 58.4877 78.4749C53.9363 78.3821 49.4588 77.3053 45.3627 75.3186C46.794 74.2999 48.8252 72.6686 49.944 71.6499C53.1027 73.0183 56.5019 73.7449 59.944 73.7874C66.2565 73.7874 71.0377 70.8374 73.8877 65.4437C75.719 61.8812 75.8252 57.7062 74.094 53.4312C71.9697 48.0523 68.1895 43.4886 63.3002 40.3999C56.8857 36.0758 49.3237 33.7706 41.5877 33.7812H39.7565C39.3295 34.7676 38.6348 35.6147 37.7511 36.2267C36.8674 36.8386 35.8301 37.1909 34.7565 37.2437H34.5627C33.0778 37.2254 31.6585 36.629 30.6063 35.5811C29.5541 34.5332 28.9518 33.1164 28.9274 31.6316C28.903 30.1468 29.4584 28.711 30.4756 27.6291C31.4928 26.5472 32.8917 25.9044 34.3752 25.8374H34.5815C35.6153 25.8382 36.6289 26.1238 37.5109 26.663C38.393 27.2021 39.1094 27.974 39.5815 28.8937H41.2127C54.2127 28.8937 65.6252 33.8812 73.3502 42.9437ZM21.6315 57.3187C21.5245 56.2808 21.7759 55.2376 22.344 54.3624C16.644 44.4874 13.594 31.9687 18.2752 18.9374C21.6315 9.14365 30.0815 2.5249 39.244 2.5249C49.019 2.5249 59.2002 11.0812 60.419 27.5687C58.894 27.0624 56.669 26.3187 55.3315 26.0437C55.0002 20.6499 50.444 7.2124 39.6502 7.4124C35.7815 7.51865 30.0815 9.3499 27.1502 13.1124C23.5244 17.6038 21.4151 23.1286 21.1252 28.8937C20.4382 36.7985 22.2928 44.7162 26.419 51.4937C26.6468 51.4104 26.8896 51.3763 27.1315 51.3937H27.3315C28.8432 51.3663 30.3039 51.9406 31.3922 52.9902C32.4805 54.0398 33.1073 55.4788 33.1346 56.9905C33.162 58.5023 32.5877 59.9629 31.538 61.0512C30.4884 62.1395 29.0495 62.7663 27.5377 62.7937H27.3315C25.8567 62.7884 24.4408 62.2142 23.3789 61.1908C22.317 60.1673 21.691 58.7735 21.6315 57.2999V57.3187Z" fill="#764ABC"/>
</svg>
