<svg width="80" height="81" viewBox="0 0 80 81" fill="none" xmlns="http://www.w3.org/2000/svg">
<path d="M63.6504 26.575V54.25L40.1129 68.2L39.9004 68.3937V78.75L40.1129 78.95L73.2379 59.8V21.2L72.9254 21.125L63.5504 26.35L63.6004 26.575" fill="#2F406A"/>
<path d="M16.4998 54.5001L40.1123 68.2001V78.9501L6.7373 59.7251V21.2751L7.08105 21.2251L16.3998 26.6438L16.4998 26.9563V54.5001Z" fill="#2379BD"/>
<path d="M16.4998 26.9498L6.7373 21.2748L40.0373 2.0498L73.2623 21.1998L63.6498 26.5748L40.0373 13.0998L16.4998 26.9498Z" fill="#03AFEF"/>
<path d="M39.7064 51.3311L39.4502 51.0686V40.6686L39.7064 40.5373L39.7689 40.2811L48.6877 35.0811L48.9627 35.1436V45.8623L39.7127 51.3373" fill="#2F406A"/>
<path d="M30.2998 46.1938V35.0625H30.5561L39.6248 40.3438L39.6998 40.55V51.3313L30.2998 46.1938Z" fill="#2379BD"/>
<path d="M39.5561 29.5874L30.2998 35.0624L39.7061 40.5374L48.9561 35.1374L39.5561 29.5874Z" fill="#03AFEF"/>
<path d="M28.1937 58.1187L27.9375 57.8561V47.4561L28.1937 47.3249L28.2562 47.0687L37.175 41.8687L37.45 41.9312V52.6437L28.2 58.1187" fill="#2F406A"/>
<path d="M18.7871 53.0001V41.8501H19.0434L28.1246 47.1188L28.1996 47.3251V58.1188L18.7871 53.0001Z" fill="#2379BD"/>
<path d="M28.0371 36.375L18.7871 41.85L28.1934 47.325L37.4434 41.925L28.0371 36.375Z" fill="#03AFEF"/>
<path d="M52.0434 58.375L51.7871 58.1125V47.7125L52.0434 47.5813L52.1059 47.325L61.0246 42.125L61.2996 42.1875V52.9L52.0434 58.375Z" fill="#2F406A"/>
<path d="M42.6377 53.2377V42.1064H42.8939L51.9689 47.3752L52.0439 47.5814V58.3752L42.6377 53.2377Z" fill="#2379BD"/>
<path d="M51.875 36.6313L42.625 42.1063L52.0313 47.5813L61.2813 42.1813L51.875 36.6313Z" fill="#03AFEF"/>
<path d="M40.5316 65.1626L40.2754 64.9001V54.5001L40.5316 54.3688L40.5941 54.1126L49.5129 48.9126L49.7879 48.9751V59.6876L40.5379 65.1626" fill="#2F406A"/>
<path d="M31.125 60.0186V48.8936H31.3812L40.45 54.1748L40.525 54.3811V65.1748L31.125 60.0186Z" fill="#2379BD"/>
<path d="M40.375 43.4189L31.125 48.8939L40.5312 54.3689L49.7813 48.9689L40.375 43.4189Z" fill="#03AFEF"/>
<path d="M39.7064 36.5814L39.4502 36.3189V25.9189L39.7064 25.7877L39.7689 25.5314L48.6877 20.3252L48.9627 20.3877V31.1252L39.7127 36.6002" fill="#2F406A"/>
<path d="M30.2998 31.4375V20.3125H30.5561L39.6248 25.5938L39.6998 25.8V36.5812L30.2998 31.4375Z" fill="#2379BD"/>
<path d="M39.5561 14.8374L30.2998 20.3124L39.7061 25.7874L48.9561 20.3874L39.5561 14.8374Z" fill="#03AFEF"/>
<path d="M28.1937 43.3687L27.9375 43.1062V32.7062L28.1937 32.5749L28.2562 32.3187L37.175 27.1187L37.45 27.1812V37.8937L28.2 43.3687" fill="#2F406A"/>
<path d="M18.7871 38.225V27.0938H19.0434L28.1246 32.375L28.1996 32.5813V43.3687L18.7871 38.225Z" fill="#2379BD"/>
<path d="M28.0371 21.625L18.7871 27.1L28.1934 32.575L37.4434 27.175L28.0371 21.625Z" fill="#03AFEF"/>
<path d="M52.0434 43.625L51.7871 43.3625V32.9625L52.0434 32.8312L52.1059 32.575L61.0246 27.375L61.2996 27.4375V38.15L52.0434 43.625Z" fill="#2F406A"/>
<path d="M42.6377 38.4813V27.375H42.8939L51.9627 32.6563L52.0377 32.8625V43.625L42.6377 38.4813Z" fill="#2379BD"/>
<path d="M51.8752 21.8813L42.6377 27.3751L52.0439 32.8501L61.2939 27.4501L51.8752 21.8813Z" fill="#03AFEF"/>
<path d="M40.5316 50.4062L40.2754 50.1438V39.7438L40.5316 39.6125L40.5941 39.3562L49.5129 34.1562L49.7879 34.2188V44.9312L40.5379 50.4062" fill="#2F406A"/>
<path d="M31.125 45.2689V34.1377H31.3812L40.45 39.4189L40.525 39.6252V50.4064L31.125 45.2689Z" fill="#2379BD"/>
<path d="M40.375 28.6626L31.125 34.1376L40.5312 39.6126L49.7813 34.2126L40.375 28.6626Z" fill="#03AFEF"/>
</svg>
