<svg width="80" height="81" viewBox="0 0 80 81" fill="none" xmlns="http://www.w3.org/2000/svg">
<g clip-path="url(#clip0_39_509)">
<path d="M40.0029 16.5015C29.3361 16.5015 22.6717 21.8327 20.0029 32.4996C24.0017 27.1677 28.6698 25.1683 34.0017 26.5015C37.0461 27.2602 39.2217 29.4677 41.6311 31.914C45.5523 35.8933 50.0911 40.5002 60.0029 40.5002C70.6692 40.5002 77.3342 35.1683 80.0029 24.499C76.0036 29.834 71.3361 31.8333 66.0036 30.5002C62.9598 29.7408 60.7867 27.534 58.3742 25.0877C54.4554 21.1083 49.9179 16.5015 40.0029 16.5015ZM20.0029 40.5002C9.33668 40.5002 2.67168 45.8321 0.00292969 56.5015C4.00168 51.1665 8.66918 49.1671 14.0017 50.5002C17.0461 51.2596 19.2217 53.4665 21.6311 55.9127C25.5523 59.8921 30.0911 64.499 40.0029 64.499C50.6692 64.499 57.3342 59.1677 60.0029 48.5008C56.0036 53.8327 51.3361 55.8321 46.0036 54.499C42.9598 53.7402 40.7867 51.5327 38.3742 49.0865C34.4554 45.1071 29.9179 40.5002 20.0029 40.5002Z" fill="#38BDF8"/>
</g>
<defs>
<clipPath id="clip0_39_509">
<rect width="80" height="80" fill="white" transform="translate(0 0.5)"/>
</clipPath>
</defs>
</svg>
